<mxfile host="app.diagrams.net" agent="Mozilla/5.0 (Windows NT 10.0; Win64; x64) AppleWebKit/537.36 (KHTML, like Gecko) Chrome/131.0.0.0 Safari/537.36" version="25.0.1">
  <diagram name="Page-1" id="8x2Zf0z1O1IZ6t_i75zC">
    <mxGraphModel dx="5349" dy="1103" grid="1" gridSize="10" guides="1" tooltips="1" connect="1" arrows="1" fold="1" page="1" pageScale="1" pageWidth="3300" pageHeight="2339" math="0" shadow="0">
      <root>
        <mxCell id="0" />
        <mxCell id="1" parent="0" />
        <mxCell id="oX0tgQEKu2oJ4y4_XFIh-98" style="edgeStyle=orthogonalEdgeStyle;rounded=0;orthogonalLoop=1;jettySize=auto;html=1;exitX=1;exitY=0;exitDx=0;exitDy=0;entryX=0.5;entryY=1;entryDx=0;entryDy=0;" edge="1" parent="1" source="oX0tgQEKu2oJ4y4_XFIh-1" target="oX0tgQEKu2oJ4y4_XFIh-8">
          <mxGeometry relative="1" as="geometry">
            <Array as="points">
              <mxPoint x="760" y="780" />
              <mxPoint x="970" y="780" />
            </Array>
          </mxGeometry>
        </mxCell>
        <mxCell id="oX0tgQEKu2oJ4y4_XFIh-99" style="edgeStyle=orthogonalEdgeStyle;rounded=0;orthogonalLoop=1;jettySize=auto;html=1;exitX=0.75;exitY=0;exitDx=0;exitDy=0;entryX=0.5;entryY=1;entryDx=0;entryDy=0;" edge="1" parent="1" source="oX0tgQEKu2oJ4y4_XFIh-1" target="oX0tgQEKu2oJ4y4_XFIh-2">
          <mxGeometry relative="1" as="geometry" />
        </mxCell>
        <mxCell id="oX0tgQEKu2oJ4y4_XFIh-100" style="edgeStyle=orthogonalEdgeStyle;rounded=0;orthogonalLoop=1;jettySize=auto;html=1;exitX=0.5;exitY=0;exitDx=0;exitDy=0;entryX=0.5;entryY=1;entryDx=0;entryDy=0;" edge="1" parent="1" source="oX0tgQEKu2oJ4y4_XFIh-1" target="oX0tgQEKu2oJ4y4_XFIh-3">
          <mxGeometry relative="1" as="geometry" />
        </mxCell>
        <mxCell id="oX0tgQEKu2oJ4y4_XFIh-101" style="edgeStyle=orthogonalEdgeStyle;rounded=0;orthogonalLoop=1;jettySize=auto;html=1;exitX=0.25;exitY=0;exitDx=0;exitDy=0;entryX=0.5;entryY=1;entryDx=0;entryDy=0;" edge="1" parent="1" source="oX0tgQEKu2oJ4y4_XFIh-1" target="oX0tgQEKu2oJ4y4_XFIh-4">
          <mxGeometry relative="1" as="geometry" />
        </mxCell>
        <mxCell id="oX0tgQEKu2oJ4y4_XFIh-102" style="edgeStyle=orthogonalEdgeStyle;rounded=0;orthogonalLoop=1;jettySize=auto;html=1;exitX=0;exitY=0;exitDx=0;exitDy=0;entryX=0.5;entryY=1;entryDx=0;entryDy=0;" edge="1" parent="1" source="oX0tgQEKu2oJ4y4_XFIh-1" target="oX0tgQEKu2oJ4y4_XFIh-12">
          <mxGeometry relative="1" as="geometry">
            <Array as="points">
              <mxPoint x="660" y="780" />
              <mxPoint x="450" y="780" />
            </Array>
          </mxGeometry>
        </mxCell>
        <mxCell id="oX0tgQEKu2oJ4y4_XFIh-1" value="airline" style="whiteSpace=wrap;html=1;align=center;" vertex="1" parent="1">
          <mxGeometry x="660" y="830" width="100" height="40" as="geometry" />
        </mxCell>
        <mxCell id="oX0tgQEKu2oJ4y4_XFIh-2" value="Name" style="ellipse;whiteSpace=wrap;html=1;align=center;" vertex="1" parent="1">
          <mxGeometry x="790" y="640" width="100" height="40" as="geometry" />
        </mxCell>
        <mxCell id="oX0tgQEKu2oJ4y4_XFIh-95" style="edgeStyle=orthogonalEdgeStyle;rounded=0;orthogonalLoop=1;jettySize=auto;html=1;exitX=1;exitY=0;exitDx=0;exitDy=0;entryX=0.5;entryY=1;entryDx=0;entryDy=0;" edge="1" parent="1" source="oX0tgQEKu2oJ4y4_XFIh-3" target="oX0tgQEKu2oJ4y4_XFIh-13">
          <mxGeometry relative="1" as="geometry">
            <Array as="points">
              <mxPoint x="745" y="610" />
              <mxPoint x="840" y="610" />
            </Array>
          </mxGeometry>
        </mxCell>
        <mxCell id="oX0tgQEKu2oJ4y4_XFIh-96" style="edgeStyle=orthogonalEdgeStyle;rounded=0;orthogonalLoop=1;jettySize=auto;html=1;exitX=0.5;exitY=0;exitDx=0;exitDy=0;entryX=0.5;entryY=1;entryDx=0;entryDy=0;" edge="1" parent="1" source="oX0tgQEKu2oJ4y4_XFIh-3" target="oX0tgQEKu2oJ4y4_XFIh-14">
          <mxGeometry relative="1" as="geometry" />
        </mxCell>
        <mxCell id="oX0tgQEKu2oJ4y4_XFIh-97" style="edgeStyle=orthogonalEdgeStyle;rounded=0;orthogonalLoop=1;jettySize=auto;html=1;exitX=0;exitY=0;exitDx=0;exitDy=0;entryX=0.5;entryY=1;entryDx=0;entryDy=0;" edge="1" parent="1" source="oX0tgQEKu2oJ4y4_XFIh-3" target="oX0tgQEKu2oJ4y4_XFIh-15">
          <mxGeometry relative="1" as="geometry">
            <Array as="points">
              <mxPoint x="675" y="610" />
              <mxPoint x="580" y="610" />
            </Array>
          </mxGeometry>
        </mxCell>
        <mxCell id="oX0tgQEKu2oJ4y4_XFIh-3" value="Address" style="ellipse;whiteSpace=wrap;html=1;align=center;" vertex="1" parent="1">
          <mxGeometry x="660" y="640" width="100" height="40" as="geometry" />
        </mxCell>
        <mxCell id="oX0tgQEKu2oJ4y4_XFIh-4" value="contact Name" style="ellipse;whiteSpace=wrap;html=1;align=center;" vertex="1" parent="1">
          <mxGeometry x="530" y="640" width="100" height="40" as="geometry" />
        </mxCell>
        <mxCell id="oX0tgQEKu2oJ4y4_XFIh-8" value="ID" style="ellipse;whiteSpace=wrap;html=1;align=center;fontStyle=4;" vertex="1" parent="1">
          <mxGeometry x="920" y="640" width="100" height="40" as="geometry" />
        </mxCell>
        <mxCell id="oX0tgQEKu2oJ4y4_XFIh-12" value="Telephone" style="ellipse;shape=doubleEllipse;margin=3;whiteSpace=wrap;html=1;align=center;" vertex="1" parent="1">
          <mxGeometry x="400" y="640" width="100" height="40" as="geometry" />
        </mxCell>
        <mxCell id="oX0tgQEKu2oJ4y4_XFIh-13" value="Country" style="ellipse;whiteSpace=wrap;html=1;align=center;" vertex="1" parent="1">
          <mxGeometry x="790" y="510" width="100" height="40" as="geometry" />
        </mxCell>
        <mxCell id="oX0tgQEKu2oJ4y4_XFIh-14" value="Governate" style="ellipse;whiteSpace=wrap;html=1;align=center;" vertex="1" parent="1">
          <mxGeometry x="660" y="510" width="100" height="40" as="geometry" />
        </mxCell>
        <mxCell id="oX0tgQEKu2oJ4y4_XFIh-15" value="City" style="ellipse;whiteSpace=wrap;html=1;align=center;" vertex="1" parent="1">
          <mxGeometry x="530" y="510" width="100" height="40" as="geometry" />
        </mxCell>
        <mxCell id="oX0tgQEKu2oJ4y4_XFIh-38" style="edgeStyle=orthogonalEdgeStyle;rounded=0;orthogonalLoop=1;jettySize=auto;html=1;exitX=1;exitY=0.5;exitDx=0;exitDy=0;entryX=0;entryY=0.5;entryDx=0;entryDy=0;" edge="1" parent="1" source="oX0tgQEKu2oJ4y4_XFIh-20" target="oX0tgQEKu2oJ4y4_XFIh-35">
          <mxGeometry relative="1" as="geometry" />
        </mxCell>
        <mxCell id="oX0tgQEKu2oJ4y4_XFIh-39" style="edgeStyle=orthogonalEdgeStyle;rounded=0;orthogonalLoop=1;jettySize=auto;html=1;exitX=0;exitY=0.5;exitDx=0;exitDy=0;entryX=1;entryY=0.5;entryDx=0;entryDy=0;" edge="1" parent="1" source="oX0tgQEKu2oJ4y4_XFIh-20" target="oX0tgQEKu2oJ4y4_XFIh-34">
          <mxGeometry relative="1" as="geometry" />
        </mxCell>
        <mxCell id="oX0tgQEKu2oJ4y4_XFIh-40" style="edgeStyle=orthogonalEdgeStyle;rounded=0;orthogonalLoop=1;jettySize=auto;html=1;exitX=1;exitY=1;exitDx=0;exitDy=0;entryX=0.5;entryY=0;entryDx=0;entryDy=0;" edge="1" parent="1" source="oX0tgQEKu2oJ4y4_XFIh-20" target="oX0tgQEKu2oJ4y4_XFIh-24">
          <mxGeometry relative="1" as="geometry">
            <Array as="points">
              <mxPoint x="760" y="1450" />
              <mxPoint x="970" y="1450" />
            </Array>
          </mxGeometry>
        </mxCell>
        <mxCell id="oX0tgQEKu2oJ4y4_XFIh-41" style="edgeStyle=orthogonalEdgeStyle;rounded=0;orthogonalLoop=1;jettySize=auto;html=1;exitX=0.75;exitY=1;exitDx=0;exitDy=0;entryX=0.5;entryY=0;entryDx=0;entryDy=0;" edge="1" parent="1" source="oX0tgQEKu2oJ4y4_XFIh-20" target="oX0tgQEKu2oJ4y4_XFIh-22">
          <mxGeometry relative="1" as="geometry">
            <Array as="points">
              <mxPoint x="735" y="1470" />
              <mxPoint x="840" y="1470" />
            </Array>
          </mxGeometry>
        </mxCell>
        <mxCell id="oX0tgQEKu2oJ4y4_XFIh-42" style="edgeStyle=orthogonalEdgeStyle;rounded=0;orthogonalLoop=1;jettySize=auto;html=1;exitX=0.5;exitY=1;exitDx=0;exitDy=0;entryX=0.5;entryY=0;entryDx=0;entryDy=0;" edge="1" parent="1" source="oX0tgQEKu2oJ4y4_XFIh-20" target="oX0tgQEKu2oJ4y4_XFIh-25">
          <mxGeometry relative="1" as="geometry" />
        </mxCell>
        <mxCell id="oX0tgQEKu2oJ4y4_XFIh-43" style="edgeStyle=orthogonalEdgeStyle;rounded=0;orthogonalLoop=1;jettySize=auto;html=1;exitX=0.25;exitY=1;exitDx=0;exitDy=0;entryX=0.5;entryY=0;entryDx=0;entryDy=0;" edge="1" parent="1" source="oX0tgQEKu2oJ4y4_XFIh-20" target="oX0tgQEKu2oJ4y4_XFIh-26">
          <mxGeometry relative="1" as="geometry">
            <Array as="points">
              <mxPoint x="685" y="1470" />
              <mxPoint x="580" y="1470" />
            </Array>
          </mxGeometry>
        </mxCell>
        <mxCell id="oX0tgQEKu2oJ4y4_XFIh-44" style="edgeStyle=orthogonalEdgeStyle;rounded=0;orthogonalLoop=1;jettySize=auto;html=1;exitX=0;exitY=1;exitDx=0;exitDy=0;entryX=0.5;entryY=0;entryDx=0;entryDy=0;" edge="1" parent="1" source="oX0tgQEKu2oJ4y4_XFIh-20" target="oX0tgQEKu2oJ4y4_XFIh-27">
          <mxGeometry relative="1" as="geometry">
            <Array as="points">
              <mxPoint x="660" y="1450" />
              <mxPoint x="450" y="1450" />
            </Array>
          </mxGeometry>
        </mxCell>
        <mxCell id="oX0tgQEKu2oJ4y4_XFIh-20" value="Employee" style="whiteSpace=wrap;html=1;align=center;" vertex="1" parent="1">
          <mxGeometry x="660" y="1400" width="100" height="40" as="geometry" />
        </mxCell>
        <mxCell id="oX0tgQEKu2oJ4y4_XFIh-22" value="Name" style="ellipse;whiteSpace=wrap;html=1;align=center;" vertex="1" parent="1">
          <mxGeometry x="790" y="1548" width="100" height="40" as="geometry" />
        </mxCell>
        <mxCell id="oX0tgQEKu2oJ4y4_XFIh-24" value="ID" style="ellipse;whiteSpace=wrap;html=1;align=center;fontStyle=4;" vertex="1" parent="1">
          <mxGeometry x="920" y="1548" width="100" height="40" as="geometry" />
        </mxCell>
        <mxCell id="oX0tgQEKu2oJ4y4_XFIh-25" value="Address" style="ellipse;whiteSpace=wrap;html=1;align=center;" vertex="1" parent="1">
          <mxGeometry x="660" y="1548" width="100" height="40" as="geometry" />
        </mxCell>
        <mxCell id="oX0tgQEKu2oJ4y4_XFIh-26" value="Gender" style="ellipse;whiteSpace=wrap;html=1;align=center;" vertex="1" parent="1">
          <mxGeometry x="530" y="1548" width="100" height="40" as="geometry" />
        </mxCell>
        <mxCell id="oX0tgQEKu2oJ4y4_XFIh-31" style="edgeStyle=orthogonalEdgeStyle;rounded=0;orthogonalLoop=1;jettySize=auto;html=1;exitX=1;exitY=1;exitDx=0;exitDy=0;entryX=0.5;entryY=0;entryDx=0;entryDy=0;" edge="1" parent="1" source="oX0tgQEKu2oJ4y4_XFIh-27" target="oX0tgQEKu2oJ4y4_XFIh-28">
          <mxGeometry relative="1" as="geometry">
            <Array as="points">
              <mxPoint x="485" y="1608" />
              <mxPoint x="580" y="1608" />
            </Array>
          </mxGeometry>
        </mxCell>
        <mxCell id="oX0tgQEKu2oJ4y4_XFIh-32" style="edgeStyle=orthogonalEdgeStyle;rounded=0;orthogonalLoop=1;jettySize=auto;html=1;exitX=0.5;exitY=1;exitDx=0;exitDy=0;entryX=0.5;entryY=0;entryDx=0;entryDy=0;" edge="1" parent="1" source="oX0tgQEKu2oJ4y4_XFIh-27" target="oX0tgQEKu2oJ4y4_XFIh-29">
          <mxGeometry relative="1" as="geometry" />
        </mxCell>
        <mxCell id="oX0tgQEKu2oJ4y4_XFIh-33" style="edgeStyle=orthogonalEdgeStyle;rounded=0;orthogonalLoop=1;jettySize=auto;html=1;exitX=0;exitY=1;exitDx=0;exitDy=0;entryX=0.5;entryY=0;entryDx=0;entryDy=0;" edge="1" parent="1" source="oX0tgQEKu2oJ4y4_XFIh-27" target="oX0tgQEKu2oJ4y4_XFIh-30">
          <mxGeometry relative="1" as="geometry">
            <Array as="points">
              <mxPoint x="415" y="1608" />
              <mxPoint x="320" y="1608" />
            </Array>
          </mxGeometry>
        </mxCell>
        <mxCell id="oX0tgQEKu2oJ4y4_XFIh-27" value="Birth Date" style="ellipse;whiteSpace=wrap;html=1;align=center;" vertex="1" parent="1">
          <mxGeometry x="400" y="1548" width="100" height="40" as="geometry" />
        </mxCell>
        <mxCell id="oX0tgQEKu2oJ4y4_XFIh-28" value="Day" style="ellipse;whiteSpace=wrap;html=1;align=center;" vertex="1" parent="1">
          <mxGeometry x="530" y="1668" width="100" height="40" as="geometry" />
        </mxCell>
        <mxCell id="oX0tgQEKu2oJ4y4_XFIh-29" value="Month" style="ellipse;whiteSpace=wrap;html=1;align=center;" vertex="1" parent="1">
          <mxGeometry x="400" y="1668" width="100" height="40" as="geometry" />
        </mxCell>
        <mxCell id="oX0tgQEKu2oJ4y4_XFIh-30" value="Year" style="ellipse;whiteSpace=wrap;html=1;align=center;" vertex="1" parent="1">
          <mxGeometry x="270" y="1668" width="100" height="40" as="geometry" />
        </mxCell>
        <mxCell id="oX0tgQEKu2oJ4y4_XFIh-34" value="Qualifications" style="ellipse;whiteSpace=wrap;html=1;align=center;" vertex="1" parent="1">
          <mxGeometry x="400" y="1400" width="100" height="40" as="geometry" />
        </mxCell>
        <mxCell id="oX0tgQEKu2oJ4y4_XFIh-35" value="Position" style="ellipse;whiteSpace=wrap;html=1;align=center;" vertex="1" parent="1">
          <mxGeometry x="920" y="1400" width="100" height="40" as="geometry" />
        </mxCell>
        <mxCell id="oX0tgQEKu2oJ4y4_XFIh-105" style="edgeStyle=orthogonalEdgeStyle;rounded=0;orthogonalLoop=1;jettySize=auto;html=1;exitX=0.25;exitY=0;exitDx=0;exitDy=0;entryX=0.5;entryY=1;entryDx=0;entryDy=0;" edge="1" parent="1" source="oX0tgQEKu2oJ4y4_XFIh-45" target="oX0tgQEKu2oJ4y4_XFIh-48">
          <mxGeometry relative="1" as="geometry" />
        </mxCell>
        <mxCell id="oX0tgQEKu2oJ4y4_XFIh-106" style="edgeStyle=orthogonalEdgeStyle;rounded=0;orthogonalLoop=1;jettySize=auto;html=1;exitX=0.5;exitY=0;exitDx=0;exitDy=0;entryX=0.5;entryY=1;entryDx=0;entryDy=0;" edge="1" parent="1" source="oX0tgQEKu2oJ4y4_XFIh-45" target="oX0tgQEKu2oJ4y4_XFIh-49">
          <mxGeometry relative="1" as="geometry" />
        </mxCell>
        <mxCell id="oX0tgQEKu2oJ4y4_XFIh-107" style="edgeStyle=orthogonalEdgeStyle;rounded=0;orthogonalLoop=1;jettySize=auto;html=1;exitX=0.75;exitY=0;exitDx=0;exitDy=0;entryX=0.5;entryY=1;entryDx=0;entryDy=0;" edge="1" parent="1" source="oX0tgQEKu2oJ4y4_XFIh-45" target="oX0tgQEKu2oJ4y4_XFIh-46">
          <mxGeometry relative="1" as="geometry" />
        </mxCell>
        <mxCell id="oX0tgQEKu2oJ4y4_XFIh-45" value="Aircraft" style="whiteSpace=wrap;html=1;align=center;" vertex="1" parent="1">
          <mxGeometry x="1380" y="830" width="100" height="40" as="geometry" />
        </mxCell>
        <mxCell id="oX0tgQEKu2oJ4y4_XFIh-46" value="Model" style="ellipse;whiteSpace=wrap;html=1;align=center;" vertex="1" parent="1">
          <mxGeometry x="1540" y="640" width="100" height="40" as="geometry" />
        </mxCell>
        <mxCell id="oX0tgQEKu2oJ4y4_XFIh-48" value="Capacity" style="ellipse;whiteSpace=wrap;html=1;align=center;" vertex="1" parent="1">
          <mxGeometry x="1220" y="640" width="100" height="40" as="geometry" />
        </mxCell>
        <mxCell id="oX0tgQEKu2oJ4y4_XFIh-49" value="AC_ID" style="ellipse;whiteSpace=wrap;html=1;align=center;fontStyle=4;" vertex="1" parent="1">
          <mxGeometry x="1380" y="640" width="100" height="40" as="geometry" />
        </mxCell>
        <mxCell id="oX0tgQEKu2oJ4y4_XFIh-57" style="edgeStyle=orthogonalEdgeStyle;rounded=0;orthogonalLoop=1;jettySize=auto;html=1;exitX=0.75;exitY=1;exitDx=0;exitDy=0;" edge="1" parent="1" source="oX0tgQEKu2oJ4y4_XFIh-53" target="oX0tgQEKu2oJ4y4_XFIh-54">
          <mxGeometry relative="1" as="geometry" />
        </mxCell>
        <mxCell id="oX0tgQEKu2oJ4y4_XFIh-58" style="edgeStyle=orthogonalEdgeStyle;rounded=0;orthogonalLoop=1;jettySize=auto;html=1;exitX=0.5;exitY=1;exitDx=0;exitDy=0;entryX=0.5;entryY=0;entryDx=0;entryDy=0;" edge="1" parent="1" source="oX0tgQEKu2oJ4y4_XFIh-53" target="oX0tgQEKu2oJ4y4_XFIh-55">
          <mxGeometry relative="1" as="geometry" />
        </mxCell>
        <mxCell id="oX0tgQEKu2oJ4y4_XFIh-59" style="edgeStyle=orthogonalEdgeStyle;rounded=0;orthogonalLoop=1;jettySize=auto;html=1;exitX=0.25;exitY=1;exitDx=0;exitDy=0;entryX=0.5;entryY=0;entryDx=0;entryDy=0;" edge="1" parent="1" source="oX0tgQEKu2oJ4y4_XFIh-53" target="oX0tgQEKu2oJ4y4_XFIh-56">
          <mxGeometry relative="1" as="geometry" />
        </mxCell>
        <mxCell id="oX0tgQEKu2oJ4y4_XFIh-66" style="edgeStyle=orthogonalEdgeStyle;rounded=0;orthogonalLoop=1;jettySize=auto;html=1;exitX=0;exitY=1;exitDx=0;exitDy=0;entryX=0.5;entryY=0;entryDx=0;entryDy=0;" edge="1" parent="1" source="oX0tgQEKu2oJ4y4_XFIh-53" target="oX0tgQEKu2oJ4y4_XFIh-65">
          <mxGeometry relative="1" as="geometry">
            <Array as="points">
              <mxPoint x="1380" y="1650" />
              <mxPoint x="1120" y="1650" />
            </Array>
          </mxGeometry>
        </mxCell>
        <mxCell id="oX0tgQEKu2oJ4y4_XFIh-67" style="edgeStyle=orthogonalEdgeStyle;rounded=0;orthogonalLoop=1;jettySize=auto;html=1;exitX=1;exitY=1;exitDx=0;exitDy=0;entryX=0.5;entryY=0;entryDx=0;entryDy=0;" edge="1" parent="1" source="oX0tgQEKu2oJ4y4_XFIh-53" target="oX0tgQEKu2oJ4y4_XFIh-64">
          <mxGeometry relative="1" as="geometry">
            <Array as="points">
              <mxPoint x="1480" y="1650" />
              <mxPoint x="1730" y="1650" />
            </Array>
          </mxGeometry>
        </mxCell>
        <mxCell id="oX0tgQEKu2oJ4y4_XFIh-53" value="Route" style="whiteSpace=wrap;html=1;align=center;" vertex="1" parent="1">
          <mxGeometry x="1380" y="1590" width="100" height="40" as="geometry" />
        </mxCell>
        <mxCell id="oX0tgQEKu2oJ4y4_XFIh-54" value="Origin" style="ellipse;whiteSpace=wrap;html=1;align=center;" vertex="1" parent="1">
          <mxGeometry x="1530" y="1700" width="100" height="40" as="geometry" />
        </mxCell>
        <mxCell id="oX0tgQEKu2oJ4y4_XFIh-55" value="&lt;u&gt;Route ID&lt;/u&gt;" style="ellipse;whiteSpace=wrap;html=1;align=center;" vertex="1" parent="1">
          <mxGeometry x="1380" y="1700" width="100" height="40" as="geometry" />
        </mxCell>
        <mxCell id="oX0tgQEKu2oJ4y4_XFIh-56" value="Destination" style="ellipse;whiteSpace=wrap;html=1;align=center;" vertex="1" parent="1">
          <mxGeometry x="1230" y="1700" width="100" height="40" as="geometry" />
        </mxCell>
        <mxCell id="oX0tgQEKu2oJ4y4_XFIh-64" value="Distance" style="ellipse;whiteSpace=wrap;html=1;align=center;" vertex="1" parent="1">
          <mxGeometry x="1680" y="1698" width="100" height="40" as="geometry" />
        </mxCell>
        <mxCell id="oX0tgQEKu2oJ4y4_XFIh-65" value="Attribute" style="ellipse;whiteSpace=wrap;html=1;align=center;" vertex="1" parent="1">
          <mxGeometry x="1070" y="1700" width="100" height="40" as="geometry" />
        </mxCell>
        <mxCell id="oX0tgQEKu2oJ4y4_XFIh-73" style="edgeStyle=orthogonalEdgeStyle;rounded=0;orthogonalLoop=1;jettySize=auto;html=1;exitX=0.5;exitY=1;exitDx=0;exitDy=0;entryX=0.5;entryY=0;entryDx=0;entryDy=0;" edge="1" parent="1" source="oX0tgQEKu2oJ4y4_XFIh-68" target="oX0tgQEKu2oJ4y4_XFIh-70">
          <mxGeometry relative="1" as="geometry" />
        </mxCell>
        <mxCell id="oX0tgQEKu2oJ4y4_XFIh-74" style="edgeStyle=orthogonalEdgeStyle;rounded=0;orthogonalLoop=1;jettySize=auto;html=1;exitX=0.75;exitY=1;exitDx=0;exitDy=0;entryX=0.5;entryY=0;entryDx=0;entryDy=0;" edge="1" parent="1" source="oX0tgQEKu2oJ4y4_XFIh-68" target="oX0tgQEKu2oJ4y4_XFIh-69">
          <mxGeometry relative="1" as="geometry" />
        </mxCell>
        <mxCell id="oX0tgQEKu2oJ4y4_XFIh-75" style="edgeStyle=orthogonalEdgeStyle;rounded=0;orthogonalLoop=1;jettySize=auto;html=1;exitX=0.25;exitY=1;exitDx=0;exitDy=0;entryX=0.5;entryY=0;entryDx=0;entryDy=0;" edge="1" parent="1" source="oX0tgQEKu2oJ4y4_XFIh-68" target="oX0tgQEKu2oJ4y4_XFIh-72">
          <mxGeometry relative="1" as="geometry" />
        </mxCell>
        <mxCell id="oX0tgQEKu2oJ4y4_XFIh-68" value="Crew" style="whiteSpace=wrap;html=1;align=center;" vertex="1" parent="1">
          <mxGeometry x="1980" y="830" width="100" height="40" as="geometry" />
        </mxCell>
        <mxCell id="oX0tgQEKu2oJ4y4_XFIh-69" value="&lt;span style=&quot;text-decoration-line: underline;&quot;&gt;AC_ID&lt;/span&gt;" style="ellipse;whiteSpace=wrap;html=1;align=center;" vertex="1" parent="1">
          <mxGeometry x="2160" y="920" width="100" height="40" as="geometry" />
        </mxCell>
        <mxCell id="oX0tgQEKu2oJ4y4_XFIh-78" style="edgeStyle=orthogonalEdgeStyle;rounded=0;orthogonalLoop=1;jettySize=auto;html=1;exitX=1;exitY=1;exitDx=0;exitDy=0;entryX=0.5;entryY=0;entryDx=0;entryDy=0;" edge="1" parent="1" source="oX0tgQEKu2oJ4y4_XFIh-70" target="oX0tgQEKu2oJ4y4_XFIh-76">
          <mxGeometry relative="1" as="geometry" />
        </mxCell>
        <mxCell id="oX0tgQEKu2oJ4y4_XFIh-79" style="edgeStyle=orthogonalEdgeStyle;rounded=0;orthogonalLoop=1;jettySize=auto;html=1;exitX=0;exitY=1;exitDx=0;exitDy=0;entryX=0.5;entryY=0;entryDx=0;entryDy=0;" edge="1" parent="1" source="oX0tgQEKu2oJ4y4_XFIh-70" target="oX0tgQEKu2oJ4y4_XFIh-77">
          <mxGeometry relative="1" as="geometry" />
        </mxCell>
        <mxCell id="oX0tgQEKu2oJ4y4_XFIh-70" value="Pilot" style="ellipse;whiteSpace=wrap;html=1;align=center;" vertex="1" parent="1">
          <mxGeometry x="1980" y="920" width="100" height="40" as="geometry" />
        </mxCell>
        <mxCell id="oX0tgQEKu2oJ4y4_XFIh-72" value="Hostess" style="ellipse;shape=doubleEllipse;margin=3;whiteSpace=wrap;html=1;align=center;" vertex="1" parent="1">
          <mxGeometry x="1800" y="920" width="100" height="40" as="geometry" />
        </mxCell>
        <mxCell id="oX0tgQEKu2oJ4y4_XFIh-76" value="Assistant" style="ellipse;whiteSpace=wrap;html=1;align=center;" vertex="1" parent="1">
          <mxGeometry x="2050" y="1000" width="100" height="40" as="geometry" />
        </mxCell>
        <mxCell id="oX0tgQEKu2oJ4y4_XFIh-77" value="Major" style="ellipse;whiteSpace=wrap;html=1;align=center;" vertex="1" parent="1">
          <mxGeometry x="1910" y="1000" width="100" height="40" as="geometry" />
        </mxCell>
        <mxCell id="oX0tgQEKu2oJ4y4_XFIh-91" style="edgeStyle=orthogonalEdgeStyle;rounded=0;orthogonalLoop=1;jettySize=auto;html=1;exitX=1;exitY=0.5;exitDx=0;exitDy=0;entryX=0.5;entryY=1;entryDx=0;entryDy=0;" edge="1" parent="1" source="oX0tgQEKu2oJ4y4_XFIh-81" target="oX0tgQEKu2oJ4y4_XFIh-86">
          <mxGeometry relative="1" as="geometry" />
        </mxCell>
        <mxCell id="oX0tgQEKu2oJ4y4_XFIh-92" style="edgeStyle=orthogonalEdgeStyle;rounded=0;orthogonalLoop=1;jettySize=auto;html=1;exitX=0.5;exitY=0;exitDx=0;exitDy=0;entryX=0.5;entryY=1;entryDx=0;entryDy=0;" edge="1" parent="1" source="oX0tgQEKu2oJ4y4_XFIh-81" target="oX0tgQEKu2oJ4y4_XFIh-83">
          <mxGeometry relative="1" as="geometry" />
        </mxCell>
        <mxCell id="oX0tgQEKu2oJ4y4_XFIh-93" style="edgeStyle=orthogonalEdgeStyle;rounded=0;orthogonalLoop=1;jettySize=auto;html=1;exitX=0;exitY=0.5;exitDx=0;exitDy=0;entryX=0.5;entryY=1;entryDx=0;entryDy=0;" edge="1" parent="1" source="oX0tgQEKu2oJ4y4_XFIh-81" target="oX0tgQEKu2oJ4y4_XFIh-82">
          <mxGeometry relative="1" as="geometry" />
        </mxCell>
        <mxCell id="oX0tgQEKu2oJ4y4_XFIh-81" value="Transaction" style="shape=ext;margin=3;double=1;whiteSpace=wrap;html=1;align=center;" vertex="1" parent="1">
          <mxGeometry x="-50" y="830" width="100" height="40" as="geometry" />
        </mxCell>
        <mxCell id="oX0tgQEKu2oJ4y4_XFIh-82" value="Tran ID" style="ellipse;whiteSpace=wrap;html=1;align=center;fontStyle=4;" vertex="1" parent="1">
          <mxGeometry x="-190" y="710" width="100" height="40" as="geometry" />
        </mxCell>
        <mxCell id="oX0tgQEKu2oJ4y4_XFIh-83" value="date" style="ellipse;whiteSpace=wrap;html=1;align=center;" vertex="1" parent="1">
          <mxGeometry x="-50" y="710" width="100" height="40" as="geometry" />
        </mxCell>
        <mxCell id="oX0tgQEKu2oJ4y4_XFIh-89" style="edgeStyle=orthogonalEdgeStyle;rounded=0;orthogonalLoop=1;jettySize=auto;html=1;exitX=1;exitY=0;exitDx=0;exitDy=0;entryX=0.5;entryY=1;entryDx=0;entryDy=0;" edge="1" parent="1" source="oX0tgQEKu2oJ4y4_XFIh-86" target="oX0tgQEKu2oJ4y4_XFIh-88">
          <mxGeometry relative="1" as="geometry">
            <Array as="points">
              <mxPoint x="175" y="660" />
              <mxPoint x="250" y="660" />
            </Array>
          </mxGeometry>
        </mxCell>
        <mxCell id="oX0tgQEKu2oJ4y4_XFIh-90" style="edgeStyle=orthogonalEdgeStyle;rounded=0;orthogonalLoop=1;jettySize=auto;html=1;exitX=0;exitY=0;exitDx=0;exitDy=0;entryX=0.5;entryY=1;entryDx=0;entryDy=0;" edge="1" parent="1" source="oX0tgQEKu2oJ4y4_XFIh-86" target="oX0tgQEKu2oJ4y4_XFIh-87">
          <mxGeometry relative="1" as="geometry">
            <Array as="points">
              <mxPoint x="105" y="660" />
              <mxPoint x="20" y="660" />
            </Array>
          </mxGeometry>
        </mxCell>
        <mxCell id="oX0tgQEKu2oJ4y4_XFIh-86" value="Amount" style="ellipse;whiteSpace=wrap;html=1;align=center;" vertex="1" parent="1">
          <mxGeometry x="90" y="710" width="100" height="40" as="geometry" />
        </mxCell>
        <mxCell id="oX0tgQEKu2oJ4y4_XFIh-87" value="Paid" style="ellipse;whiteSpace=wrap;html=1;align=center;" vertex="1" parent="1">
          <mxGeometry x="-30" y="580" width="100" height="40" as="geometry" />
        </mxCell>
        <mxCell id="oX0tgQEKu2oJ4y4_XFIh-88" value="Received" style="ellipse;whiteSpace=wrap;html=1;align=center;" vertex="1" parent="1">
          <mxGeometry x="200" y="580" width="100" height="40" as="geometry" />
        </mxCell>
        <mxCell id="oX0tgQEKu2oJ4y4_XFIh-103" style="edgeStyle=orthogonalEdgeStyle;rounded=0;orthogonalLoop=1;jettySize=auto;html=1;exitX=0.5;exitY=1;exitDx=0;exitDy=0;entryX=0.5;entryY=0;entryDx=0;entryDy=0;shape=link;" edge="1" parent="1" source="oX0tgQEKu2oJ4y4_XFIh-94" target="oX0tgQEKu2oJ4y4_XFIh-20">
          <mxGeometry relative="1" as="geometry" />
        </mxCell>
        <mxCell id="oX0tgQEKu2oJ4y4_XFIh-104" style="edgeStyle=orthogonalEdgeStyle;rounded=0;orthogonalLoop=1;jettySize=auto;html=1;exitX=0.5;exitY=0;exitDx=0;exitDy=0;entryX=0.5;entryY=1;entryDx=0;entryDy=0;shape=link;" edge="1" parent="1" source="oX0tgQEKu2oJ4y4_XFIh-94" target="oX0tgQEKu2oJ4y4_XFIh-1">
          <mxGeometry relative="1" as="geometry" />
        </mxCell>
        <mxCell id="oX0tgQEKu2oJ4y4_XFIh-94" value="Works" style="shape=rhombus;perimeter=rhombusPerimeter;whiteSpace=wrap;html=1;align=center;" vertex="1" parent="1">
          <mxGeometry x="650" y="1109.5" width="120" height="60" as="geometry" />
        </mxCell>
        <mxCell id="oX0tgQEKu2oJ4y4_XFIh-109" style="edgeStyle=orthogonalEdgeStyle;rounded=0;orthogonalLoop=1;jettySize=auto;html=1;exitX=0;exitY=0.5;exitDx=0;exitDy=0;entryX=1;entryY=0.5;entryDx=0;entryDy=0;" edge="1" parent="1" source="oX0tgQEKu2oJ4y4_XFIh-108" target="oX0tgQEKu2oJ4y4_XFIh-1">
          <mxGeometry relative="1" as="geometry" />
        </mxCell>
        <mxCell id="oX0tgQEKu2oJ4y4_XFIh-110" style="edgeStyle=orthogonalEdgeStyle;rounded=0;orthogonalLoop=1;jettySize=auto;html=1;exitX=1;exitY=0.5;exitDx=0;exitDy=0;entryX=0;entryY=0.5;entryDx=0;entryDy=0;" edge="1" parent="1" source="oX0tgQEKu2oJ4y4_XFIh-108" target="oX0tgQEKu2oJ4y4_XFIh-45">
          <mxGeometry relative="1" as="geometry" />
        </mxCell>
        <mxCell id="oX0tgQEKu2oJ4y4_XFIh-108" value="Own" style="shape=rhombus;perimeter=rhombusPerimeter;whiteSpace=wrap;html=1;align=center;" vertex="1" parent="1">
          <mxGeometry x="1010" y="820" width="120" height="60" as="geometry" />
        </mxCell>
        <mxCell id="oX0tgQEKu2oJ4y4_XFIh-112" style="edgeStyle=orthogonalEdgeStyle;rounded=0;orthogonalLoop=1;jettySize=auto;html=1;exitX=0.5;exitY=1;exitDx=0;exitDy=0;entryX=0.5;entryY=0;entryDx=0;entryDy=0;" edge="1" parent="1" source="oX0tgQEKu2oJ4y4_XFIh-111" target="oX0tgQEKu2oJ4y4_XFIh-53">
          <mxGeometry relative="1" as="geometry" />
        </mxCell>
        <mxCell id="oX0tgQEKu2oJ4y4_XFIh-113" style="edgeStyle=orthogonalEdgeStyle;rounded=0;orthogonalLoop=1;jettySize=auto;html=1;exitX=0.5;exitY=0;exitDx=0;exitDy=0;entryX=0.5;entryY=1;entryDx=0;entryDy=0;" edge="1" parent="1" source="oX0tgQEKu2oJ4y4_XFIh-111" target="oX0tgQEKu2oJ4y4_XFIh-45">
          <mxGeometry relative="1" as="geometry">
            <mxPoint x="1430" y="1110" as="targetPoint" />
          </mxGeometry>
        </mxCell>
        <mxCell id="oX0tgQEKu2oJ4y4_XFIh-119" style="edgeStyle=orthogonalEdgeStyle;rounded=0;orthogonalLoop=1;jettySize=auto;html=1;exitX=1;exitY=1;exitDx=0;exitDy=0;entryX=0;entryY=0.5;entryDx=0;entryDy=0;" edge="1" parent="1" source="oX0tgQEKu2oJ4y4_XFIh-111" target="oX0tgQEKu2oJ4y4_XFIh-116">
          <mxGeometry relative="1" as="geometry" />
        </mxCell>
        <mxCell id="oX0tgQEKu2oJ4y4_XFIh-120" style="edgeStyle=orthogonalEdgeStyle;rounded=0;orthogonalLoop=1;jettySize=auto;html=1;exitX=1;exitY=0.5;exitDx=0;exitDy=0;entryX=0;entryY=0.5;entryDx=0;entryDy=0;" edge="1" parent="1" source="oX0tgQEKu2oJ4y4_XFIh-111" target="oX0tgQEKu2oJ4y4_XFIh-115">
          <mxGeometry relative="1" as="geometry" />
        </mxCell>
        <mxCell id="oX0tgQEKu2oJ4y4_XFIh-121" style="edgeStyle=orthogonalEdgeStyle;rounded=0;orthogonalLoop=1;jettySize=auto;html=1;exitX=1;exitY=0;exitDx=0;exitDy=0;entryX=0;entryY=0.5;entryDx=0;entryDy=0;" edge="1" parent="1" source="oX0tgQEKu2oJ4y4_XFIh-111" target="oX0tgQEKu2oJ4y4_XFIh-114">
          <mxGeometry relative="1" as="geometry" />
        </mxCell>
        <mxCell id="oX0tgQEKu2oJ4y4_XFIh-122" style="edgeStyle=orthogonalEdgeStyle;rounded=0;orthogonalLoop=1;jettySize=auto;html=1;exitX=0;exitY=0;exitDx=0;exitDy=0;entryX=1;entryY=0.5;entryDx=0;entryDy=0;" edge="1" parent="1" source="oX0tgQEKu2oJ4y4_XFIh-111" target="oX0tgQEKu2oJ4y4_XFIh-117">
          <mxGeometry relative="1" as="geometry">
            <Array as="points">
              <mxPoint x="1380" y="1225" />
              <mxPoint x="1380" y="1160" />
            </Array>
          </mxGeometry>
        </mxCell>
        <mxCell id="oX0tgQEKu2oJ4y4_XFIh-123" style="edgeStyle=orthogonalEdgeStyle;rounded=0;orthogonalLoop=1;jettySize=auto;html=1;exitX=0;exitY=1;exitDx=0;exitDy=0;entryX=1;entryY=0.5;entryDx=0;entryDy=0;" edge="1" parent="1" source="oX0tgQEKu2oJ4y4_XFIh-111" target="oX0tgQEKu2oJ4y4_XFIh-118">
          <mxGeometry relative="1" as="geometry">
            <Array as="points">
              <mxPoint x="1380" y="1255" />
              <mxPoint x="1380" y="1340" />
            </Array>
          </mxGeometry>
        </mxCell>
        <mxCell id="oX0tgQEKu2oJ4y4_XFIh-111" value="Work on" style="shape=rhombus;perimeter=rhombusPerimeter;whiteSpace=wrap;html=1;align=center;" vertex="1" parent="1">
          <mxGeometry x="1370" y="1210" width="120" height="60" as="geometry" />
        </mxCell>
        <mxCell id="oX0tgQEKu2oJ4y4_XFIh-114" value="Passengers" style="ellipse;whiteSpace=wrap;html=1;align=center;" vertex="1" parent="1">
          <mxGeometry x="1530" y="1140" width="100" height="40" as="geometry" />
        </mxCell>
        <mxCell id="oX0tgQEKu2oJ4y4_XFIh-115" value="Price" style="ellipse;whiteSpace=wrap;html=1;align=center;" vertex="1" parent="1">
          <mxGeometry x="1530" y="1220" width="100" height="40" as="geometry" />
        </mxCell>
        <mxCell id="oX0tgQEKu2oJ4y4_XFIh-116" value="Dep Time" style="ellipse;whiteSpace=wrap;html=1;align=center;" vertex="1" parent="1">
          <mxGeometry x="1530" y="1320" width="100" height="40" as="geometry" />
        </mxCell>
        <mxCell id="oX0tgQEKu2oJ4y4_XFIh-117" value="Arr Time" style="ellipse;whiteSpace=wrap;html=1;align=center;" vertex="1" parent="1">
          <mxGeometry x="1260" y="1140" width="100" height="40" as="geometry" />
        </mxCell>
        <mxCell id="oX0tgQEKu2oJ4y4_XFIh-118" value="Time" style="ellipse;whiteSpace=wrap;html=1;align=center;dashed=1;" vertex="1" parent="1">
          <mxGeometry x="1260" y="1320" width="100" height="40" as="geometry" />
        </mxCell>
        <mxCell id="oX0tgQEKu2oJ4y4_XFIh-126" style="edgeStyle=orthogonalEdgeStyle;rounded=0;orthogonalLoop=1;jettySize=auto;html=1;exitX=0;exitY=0.5;exitDx=0;exitDy=0;entryX=1;entryY=0.5;entryDx=0;entryDy=0;" edge="1" parent="1" source="oX0tgQEKu2oJ4y4_XFIh-124" target="oX0tgQEKu2oJ4y4_XFIh-45">
          <mxGeometry relative="1" as="geometry" />
        </mxCell>
        <mxCell id="oX0tgQEKu2oJ4y4_XFIh-127" style="edgeStyle=orthogonalEdgeStyle;rounded=0;orthogonalLoop=1;jettySize=auto;html=1;exitX=1;exitY=0.5;exitDx=0;exitDy=0;entryX=0;entryY=0.5;entryDx=0;entryDy=0;" edge="1" parent="1" source="oX0tgQEKu2oJ4y4_XFIh-124" target="oX0tgQEKu2oJ4y4_XFIh-68">
          <mxGeometry relative="1" as="geometry" />
        </mxCell>
        <mxCell id="oX0tgQEKu2oJ4y4_XFIh-124" value="Has" style="shape=rhombus;perimeter=rhombusPerimeter;whiteSpace=wrap;html=1;align=center;" vertex="1" parent="1">
          <mxGeometry x="1670" y="820" width="120" height="60" as="geometry" />
        </mxCell>
      </root>
    </mxGraphModel>
  </diagram>
</mxfile>
